<svg id="Group" xmlns="http://www.w3.org/2000/svg" width="20" height="20" viewBox="0 0 20 20">
  <g id="Group-2" data-name="Group">
    <path id="Vector" d="M10.04,20A10.106,10.106,0,0,1,0,9.961a9.844,9.844,0,0,1,2.96-7.04A9.984,9.984,0,0,1,17.079,17.04,9.843,9.843,0,0,1,10.04,20Zm0-5.273A1.172,1.172,0,1,0,11.211,15.9,1.174,1.174,0,0,0,10.04,14.727Zm0-8.868a1.174,1.174,0,0,1,.691,2.119A5.4,5.4,0,0,0,8.867,12V12.3a1.172,1.172,0,0,0,2.344,0V12a3.143,3.143,0,0,1,.9-2.129A3.516,3.516,0,1,0,6.523,7.031a1.172,1.172,0,1,0,2.344,0A1.174,1.174,0,0,1,10.04,5.859Z" fill="#1f303f"/>
  </g>
</svg>
