<svg id="Group_39634" data-name="Group 39634" xmlns="http://www.w3.org/2000/svg" width="25.979" height="25.979" viewBox="0 0 25.979 25.979">
  <rect id="background" width="25.979" height="25.979" rx="7" fill="#f2a431"/>
  <g id="ic_in" transform="translate(7.196 6.944)" opacity="0.98">
    <g id="Group">
      <g id="Group-2" data-name="Group">
        <g id="x30_1_Logout" data-name="x30 1 Logout">
          <g id="Group-3" data-name="Group">
            <path id="Vector" d="M1767.1,469.121a.575.575,0,0,0-.268-.765,4.752,4.752,0,0,1-1.936-1.712,4.718,4.718,0,1,1,6.013,1.714.573.573,0,0,0,.5,1.033,5.865,5.865,0,1,0-5.071,0,.575.575,0,0,0,.765-.27Z" transform="translate(-1763 -458.232)" fill="#fff"/>
            <path id="Vector-2" data-name="Vector" d="M1771.447,467.1a.575.575,0,0,0,0,.811l1.441,1.441a1.112,1.112,0,0,0,1.572,0l1.442-1.441a.574.574,0,0,0-.811-.811l-.845.846v-3.256a.573.573,0,1,0-1.146,0v3.258l-.846-.846a.569.569,0,0,0-.807,0Z" transform="translate(-1767.81 -460.933)" fill="#fff"/>
          </g>
        </g>
      </g>
    </g>
  </g>
</svg>
