<svg id="audio-message" xmlns="http://www.w3.org/2000/svg" width="34" height="34" viewBox="0 0 34 34">
  <path id="Path_39824" data-name="Path 39824" d="M31.012,9.5H26.489A13.556,13.556,0,1,0,2.123,20.84L.062,26.416a1,1,0,0,0,1.28,1.28L7.2,25.531a13.52,13.52,0,0,0,3.889,1.354v.874a2.992,2.992,0,0,0,2.988,2.988H28.195l4.224,3.064A1,1,0,0,0,34,33V12.484A2.992,2.992,0,0,0,31.012,9.5ZM7.283,23.442a1,1,0,0,0-.345.062L2.681,25.077l1.487-4.022a1,1,0,0,0-.116-.913,11.55,11.55,0,1,1,3.731,3.434,1,1,0,0,0-.5-.134Zm24.724,7.609-2.9-2.107a1,1,0,0,0-.585-.19H14.078a1,1,0,0,1-1-1V27.1c.157.006.315.009.473.009a13.562,13.562,0,0,0,13.4-15.622h4.059a1,1,0,0,1,1,1Z" fill="#1a4224"/>
  <path id="Path_39825" data-name="Path 39825" d="M191.993,125.824V116A1,1,0,0,0,190,116v9.828a1,1,0,0,0,1.992,0Z" transform="translate(-177.384 -107.363)" fill="#1a4224"/>
  <path id="Path_39826" data-name="Path 39826" d="M251,175.54a1,1,0,0,0,1-1v-2.367a1,1,0,0,0-1.992,0v2.367A1,1,0,0,0,251,175.54Z" transform="translate(-233.399 -159.814)" fill="#1a4224"/>
  <path id="Path_39827" data-name="Path 39827" d="M131,171.181a1,1,0,0,0-1,1v2.367a1,1,0,0,0,1.992,0v-2.367A1,1,0,0,0,131,171.181Z" transform="translate(-121.367 -159.814)" fill="#1a4224"/>
  <path id="Path_39828" data-name="Path 39828" d="M311,154.728a1,1,0,0,0,1-1v-5.554a1,1,0,1,0-1.992,0v5.554A1,1,0,0,0,311,154.728Z" transform="translate(-289.415 -137.408)" fill="#1a4224"/>
  <path id="Path_39829" data-name="Path 39829" d="M71,147.182a1,1,0,0,0-1,1v5.554a1,1,0,1,0,1.992,0v-5.554A1,1,0,0,0,71,147.182Z" transform="translate(-65.352 -137.408)" fill="#1a4224"/>
</svg>
