<svg xmlns="http://www.w3.org/2000/svg" viewBox="0 0 23.48 23.48"><defs><style>.cls-1{fill:#9ca4ba;}.cls-2{fill:#1f303f;}</style></defs><title>chat_3</title><g id="Layer_2" data-name="Layer 2"><g id="Layer_1-2" data-name="Layer 1"><circle class="cls-1" cx="17.18" cy="11.74" r="1.43"/><circle class="cls-1" cx="11.74" cy="11.74" r="1.43"/><circle class="cls-1" cx="6.31" cy="11.74" r="1.43"/><path class="cls-2" d="M11.74,0V1.64a10.11,10.11,0,0,1,1,20.16c-.34,0-.68.05-1,.05a10.06,10.06,0,0,1-5.5-1.63,2.36,2.36,0,0,0-1.33-.4,2.15,2.15,0,0,0-.62.08l-1.51.4.43-1.84A2.46,2.46,0,0,0,3,16.72a10.1,10.1,0,0,1,7.49-15,11.48,11.48,0,0,1,1.3-.08V0m0,0a12.83,12.83,0,0,0-1.5.09A11.75,11.75,0,0,0,1.52,17.53a.78.78,0,0,1,.09.56L.86,21.33a.78.78,0,0,0,.76,1,.68.68,0,0,0,.2,0l2.89-.78a.68.68,0,0,1,.2,0,.75.75,0,0,1,.43.13,11.67,11.67,0,0,0,6.4,1.89,11.77,11.77,0,0,0,1.18-.05A11.74,11.74,0,0,0,11.74,0Z"/></g></g></svg>