<svg id="Component_280_1" data-name="Component 280 – 1" xmlns="http://www.w3.org/2000/svg" width="25.123" height="25.123" viewBox="0 0 25.123 25.123">
  <g id="Chat">
    <path id="Chat-2" data-name="Chat" d="M11.562,24.123a12.53,12.53,0,0,1-6.2-1.643l-.011-.007a1.968,1.968,0,0,0-.806-.358.5.5,0,0,0-.157.028l-.024.008-2.345.7a1.8,1.8,0,0,1-.533.082A1.64,1.64,0,0,1,.17,22.285a1.68,1.68,0,0,1-.264-1.48l.005-.018.794-2.654a.322.322,0,0,0,0-.255l-.025-.043A13.221,13.221,0,0,1-1,11.579,12.5,12.5,0,0,1-.06,6.822a12.669,12.669,0,0,1,2.614-4.01A12.426,12.426,0,0,1,11.585-1a12.4,12.4,0,0,1,8.947,3.764,12.625,12.625,0,0,1,2.635,3.995,12.429,12.429,0,0,1,.956,4.785,12.716,12.716,0,0,1-1.087,5.232,12.088,12.088,0,0,1-2.865,3.971A12.857,12.857,0,0,1,11.562,24.123ZM6.313,20.887A10.706,10.706,0,1,0,11.585.853,10.742,10.742,0,0,0,.853,11.579,11.361,11.361,0,0,0,2.3,16.934a2.139,2.139,0,0,1,.159,1.794l-.675,2.258,2.043-.608a2.353,2.353,0,0,1,.721-.115A3.342,3.342,0,0,1,6.313,20.887Z" transform="translate(1 1)" fill="#1f303f"/>
  </g>
  <path id="Path" d="M1.489,2.983A1.5,1.5,0,0,1,0,1.492a1.489,1.489,0,1,1,2.979,0A1.5,1.5,0,0,1,1.489,2.983Z" transform="translate(5.685 11.1)" fill="#9ca4ba"/>
  <path id="Path-2" data-name="Path" d="M0,1.492A1.489,1.489,0,1,0,1.489,0,1.493,1.493,0,0,0,0,1.492Z" transform="translate(16.413 11.1)" fill="#9ca4ba"/>
  <path id="Path-3" data-name="Path" d="M0,1.48a1.5,1.5,0,0,0,1.489,1.5A1.492,1.492,0,1,0,0,1.48Z" transform="translate(11.049 11.1)" fill="#9ca4ba"/>
</svg>
