<svg id="google-forms" xmlns="http://www.w3.org/2000/svg" width="24.722" height="32.456" viewBox="0 0 24.722 32.456">
  <path id="Path_22" data-name="Path 22" d="M331.951,15.839h6.1L331,8.789v6.1A.952.952,0,0,0,331.951,15.839Z" transform="translate(-313.885 -8.232)" fill="#f2a431"/>
  <path id="Path_23" data-name="Path 23" d="M63.853,32.456H82.87A2.856,2.856,0,0,0,85.722,29.6V9.509H79.066a2.856,2.856,0,0,1-2.853-2.853V0H63.853A2.856,2.856,0,0,0,61,2.853V29.6A2.856,2.856,0,0,0,63.853,32.456Zm5.705-17.179h9.509a.951.951,0,0,1,0,1.9H69.558a.951.951,0,1,1,0-1.9Zm0,3.8h9.509a.951.951,0,1,1,0,1.9H69.558a.951.951,0,1,1,0-1.9Zm0,3.8h9.509a.951.951,0,0,1,0,1.9H69.558a.951.951,0,1,1,0-1.9Zm-3.8-7.607a.951.951,0,1,1-.951.951A.951.951,0,0,1,65.754,15.277Zm0,3.8a.951.951,0,1,1-.951.951A.951.951,0,0,1,65.754,19.081Zm0,3.8a.951.951,0,1,1-.951.951A.951.951,0,0,1,65.754,22.884Z" transform="translate(-61)" fill="#f2a431"/>
</svg>
