<svg xmlns="http://www.w3.org/2000/svg" width="32.044" height="20" viewBox="0 0 32.044 20">
  <g id="group" transform="translate(8.141 -4.57)">
    <path id="Path_40145" data-name="Path 40145" d="M10.393,13.927A4.679,4.679,0,1,0,5.714,9.249a4.679,4.679,0,0,0,4.679,4.678Z" transform="translate(-2.512 0)" fill="#fd6f3d"/>
    <path id="Path_40146" data-name="Path 40146" d="M15.658,20.15A8.542,8.542,0,0,0,1,26.109a.819.819,0,0,0,.819.819h15.44a.819.819,0,0,0,.819-.819,8.242,8.242,0,0,0-.4-2.558A8.481,8.481,0,0,0,15.658,20.15Z" transform="translate(-1.657 -2.357)" fill="#fd6f3d"/>
    <circle id="Ellipse_1038" data-name="Ellipse 1038" cx="3.479" cy="3.479" r="3.479" transform="translate(14.283 7.378)" fill="#fd6f3d"/>
    <ellipse id="Ellipse_1039" data-name="Ellipse 1039" cx="3.479" cy="3.479" rx="3.479" ry="3.479" transform="translate(-5.48 7.378)" fill="#fd6f3d"/>
    <path id="Path_40147" data-name="Path 40147" d="M22.81,17.67a6.125,6.125,0,0,0-3.116.865c.178.159.357.315.525.487a10.142,10.142,0,0,1,2.417,4.066,9.4,9.4,0,0,1,.358,1.541h5.138a.819.819,0,0,0,.819-.819,6.147,6.147,0,0,0-6.14-6.14Z" transform="translate(-5.047 -2.375)" fill="#fd6f3d"/>
    <path id="Path_40148" data-name="Path 40148" d="M25.834,17.67a6.125,6.125,0,0,1,3.116.865c-.178.159-.357.315-.525.487a10.142,10.142,0,0,0-2.417,4.066,9.4,9.4,0,0,0-.358,1.541H20.513a.819.819,0,0,1-.819-.819,6.147,6.147,0,0,1,6.14-6.14Z" transform="translate(-27.835 -2.375)" fill="#fd6f3d"/>
  </g>
</svg>
