<svg id="Group_46741" data-name="Group 46741" xmlns="http://www.w3.org/2000/svg" width="48" height="48" viewBox="0 0 48 48">
  <rect id="Rectangle_10" data-name="Rectangle 10" width="48" height="48" rx="10" fill="#f2a431" opacity="0.1"/>
  <path id="Subtraction_4" data-name="Subtraction 4" d="M22.544,33.458H2.939A2.944,2.944,0,0,1,0,30.517V2.94A2.944,2.944,0,0,1,2.939,0H15.682V6.862a2.944,2.944,0,0,0,2.94,2.94h6.862V30.517A2.944,2.944,0,0,1,22.544,33.458ZM8.821,23.591a.98.98,0,0,0,0,1.96h9.8a.98.98,0,1,0,0-1.96Zm-3.92,0a.98.98,0,1,0,.98.98A.981.981,0,0,0,4.9,23.591Zm3.92-3.921a.98.98,0,1,0,0,1.96h9.8a.98.98,0,1,0,0-1.96Zm-3.92,0a.98.98,0,1,0,.98.98A.981.981,0,0,0,4.9,19.67Zm3.92-3.92a.98.98,0,1,0,0,1.96h9.8a.98.98,0,1,0,0-1.96Zm-3.92,0a.98.98,0,1,0,.98.98A.981.981,0,0,0,4.9,15.749ZM24.91,7.842H18.623a.981.981,0,0,1-.98-.98V.574L24.908,7.84Z" transform="translate(11.258 7.272)" fill="#f2a431"/>
</svg>
