<svg xmlns="http://www.w3.org/2000/svg" width="11.469" height="12.743" viewBox="0 0 11.469 12.743">
  <path id="Calendar" d="M8.06,0a.48.48,0,0,1,.485.49V.967a2.991,2.991,0,0,1,2.916,3.168L11.469,9.5A3.014,3.014,0,0,1,8.2,12.737l-4.919.006A3.046,3.046,0,0,1,.007,9.481L0,4.175A2.988,2.988,0,0,1,2.871.975V.5a.484.484,0,1,1,.969,0V.942L7.577.937V.491A.476.476,0,0,1,8.06,0Zm.257,9.042H8.31a.531.531,0,0,0-.515.543.529.529,0,1,0,.522-.543Zm-5.184,0a.544.544,0,0,0-.515.548.519.519,0,1,0,.515-.548Zm2.592,0a.544.544,0,0,0-.515.548.519.519,0,1,0,.515-.548ZM3.13,6.75a.543.543,0,0,0-.515.548A.519.519,0,1,0,3.13,6.75Zm2.592-.022a.544.544,0,0,0-.515.548.519.519,0,1,0,.515-.548Zm2.592,0a.527.527,0,0,0-.515.535v.007a.518.518,0,0,0,.535.509.526.526,0,0,0-.02-1.051ZM7.578,1.918l-3.737.005v.515a.484.484,0,1,1-.969,0v-.49a1.958,1.958,0,0,0-1.9,2.225v.2l9.524-.013V4.136A1.974,1.974,0,0,0,8.547,1.942v.49a.484.484,0,1,1-.969,0Z" fill="#fff"/>
</svg>
