<svg xmlns="http://www.w3.org/2000/svg" width="16.871" height="14.06" viewBox="0 0 16.871 14.06">
  <g id="Eye_Icon" data-name="Eye Icon" transform="translate(-8.437 -9.84)">
    <g id="Group_36117" data-name="Group 36117" transform="translate(8.437 9.84)" opacity="0.5">
      <path id="Path_4124" data-name="Path 4124" d="M128.719,153.194a.7.7,0,0,1-.7-.7v-1.054a2.111,2.111,0,0,1,2.109-2.109h1.054a.7.7,0,1,1,0,1.407h-1.054a.7.7,0,0,0-.7.7v1.054a.7.7,0,0,1-.7.7Zm0,0" transform="translate(-128.016 -149.327)" fill="#63a4f9"/>
      <path id="Path_4125" data-name="Path 4125" d="M328.507,153.18a.7.7,0,0,1-.7-.7v-1.054a.7.7,0,0,0-.7-.7h-1.054a.7.7,0,0,1,0-1.407H327.1a2.111,2.111,0,0,1,2.109,2.109v1.054A.7.7,0,0,1,328.507,153.18Zm0,0" transform="translate(-312.34 -149.312)" fill="#63a4f9"/>
      <path id="Path_4126" data-name="Path 4126" d="M131.179,307.866h-1.054a2.111,2.111,0,0,1-2.109-2.109V304.7a.7.7,0,1,1,1.407,0v1.054a.7.7,0,0,0,.7.7h1.054a.7.7,0,1,1,0,1.406Zm0,0" transform="translate(-128.016 -293.806)" fill="#63a4f9"/>
      <path id="Path_4127" data-name="Path 4127" d="M327.1,307.852h-1.054a.7.7,0,1,1,0-1.407H327.1a.7.7,0,0,0,.7-.7v-1.054a.7.7,0,1,1,1.406,0v1.054A2.113,2.113,0,0,1,327.1,307.852Zm0,0" transform="translate(-312.34 -293.792)" fill="#63a4f9"/>
    </g>
    <path id="Path_4128" data-name="Path 4128" d="M176.264,191.246a5.64,5.64,0,0,0-5.609,4.141.515.515,0,0,0,0,.253,5.87,5.87,0,0,0,11.219,0,.515.515,0,0,0,0-.253A5.64,5.64,0,0,0,176.264,191.246Zm0,6.376a2.109,2.109,0,1,1,2.109-2.109A2.115,2.115,0,0,1,176.264,197.622Zm0,0" transform="translate(-159.394 -178.643)" fill="#63a4f9"/>
  </g>
</svg>
