<svg xmlns="http://www.w3.org/2000/svg" width="22.5" height="22.5" viewBox="0 0 22.5 22.5">
  <path id="Icon_awesome-facebook-square" data-name="Icon awesome-facebook-square" d="M20.089,2.25H2.411A2.411,2.411,0,0,0,0,4.661V22.339A2.411,2.411,0,0,0,2.411,24.75H9.3V17.1H6.14V13.5H9.3V10.756c0-3.121,1.858-4.846,4.7-4.846a19.168,19.168,0,0,1,2.788.243V9.217h-1.57a1.8,1.8,0,0,0-2.03,1.945V13.5h3.454L16.1,17.1H13.2V24.75h6.893A2.411,2.411,0,0,0,22.5,22.339V4.661A2.411,2.411,0,0,0,20.089,2.25Z" transform="translate(0 -2.25)" fill="#aaa"/>
</svg>
