<svg xmlns="http://www.w3.org/2000/svg" width="26" height="25" viewBox="0 0 26 25">
  <g id="Group_44143" data-name="Group 44143" transform="translate(0.136 -0.285)">
    <rect id="Rectangle_315" data-name="Rectangle 315" width="26" height="25" rx="5" transform="translate(-0.136 0.285)" fill="#fe658d"/>
    <g id="Group_798" data-name="Group 798" transform="translate(7.603 6.021)">
      <path id="Vector" d="M10.4,5.8H6.217A1.427,1.427,0,0,1,5.2,5.373a1.457,1.457,0,0,1-.42-1.025V.121A.121.121,0,0,0,4.748.035.119.119,0,0,0,4.663,0H1.913A1.9,1.9,0,0,0,.56.566,1.943,1.943,0,0,0,0,1.933V11.6a1.943,1.943,0,0,0,.56,1.367,1.9,1.9,0,0,0,1.353.566h6.7a1.9,1.9,0,0,0,1.353-.566,1.943,1.943,0,0,0,.56-1.367V5.918a.121.121,0,0,0-.035-.085A.119.119,0,0,0,10.4,5.8Z" transform="translate(0 0)" fill="#fff"/>
      <path id="Vector-2" data-name="Vector" d="M4.4,4.36.1.018A.059.059,0,0,0,.01.027.061.061,0,0,0,0,.06V3.98a.486.486,0,0,0,.14.342.476.476,0,0,0,.338.142h3.88a.059.059,0,0,0,.033-.01.06.06,0,0,0,.022-.027A.061.061,0,0,0,4.4,4.36Z" transform="translate(5.739 0.368)" fill="#fff"/>
    </g>
  </g>
</svg>
