<svg xmlns="http://www.w3.org/2000/svg" width="23.633" height="23.656" viewBox="0 0 23.633 23.656">
  <path id="filter" d="M.739,3.93H11.983a3.44,3.44,0,0,0,6.719,0h4.193a.739.739,0,1,0,0-1.477H18.7a3.439,3.439,0,0,0-6.718,0H.739a.739.739,0,1,0,0,1.477ZM13.38,3.193s0-.005,0-.008a1.962,1.962,0,0,1,3.924,0v.011a1.962,1.962,0,0,1-3.924,0ZM22.895,19.23H18.7a3.439,3.439,0,0,0-6.718,0H.739a.739.739,0,0,0,0,1.477H11.983a3.44,3.44,0,0,0,6.719,0h4.193a.739.739,0,1,0,0-1.477Zm-7.552,2.7a1.964,1.964,0,0,1-1.962-1.958v0s0-.005,0-.008a1.962,1.962,0,0,1,3.924,0v.011a1.964,1.964,0,0,1-1.962,1.959Zm7.552-11.09H11.65a3.44,3.44,0,0,0-6.719,0H.739a.739.739,0,0,0,0,1.477H4.932a3.439,3.439,0,0,0,6.718,0H22.895a.739.739,0,1,0,0-1.477Zm-12.642.737s0,.005,0,.008a1.962,1.962,0,0,1-3.924,0v-.011a1.962,1.962,0,0,1,3.924,0Z" transform="translate(0 0.248)" fill="#fff"/>
</svg>
