<svg id="info-circle" xmlns="http://www.w3.org/2000/svg" width="13.761" height="13.761" viewBox="0 0 13.761 13.761">
  <path id="Path_8875" data-name="Path 8875" d="M6.88,12.9A6.02,6.02,0,1,0,.86,6.88,6.02,6.02,0,0,0,6.88,12.9Zm0,.86A6.88,6.88,0,1,0,0,6.88,6.88,6.88,0,0,0,6.88,13.761Z" fill="#f2a431" fill-rule="evenodd"/>
  <path id="Path_8876" data-name="Path 8876" d="M16.716,14.823l-1.969.247-.07.327.387.071c.253.06.3.151.248.4l-.635,2.983c-.167.771.09,1.135.695,1.135a1.781,1.781,0,0,0,1.26-.514l.076-.358a.953.953,0,0,1-.59.211c-.237,0-.323-.166-.261-.458Z" transform="translate(-9.036 -9.157)" fill="#f2a431"/>
  <path id="Path_8877" data-name="Path 8877" d="M17.47,8.735a.86.86,0,1,1-.86-.86A.86.86,0,0,1,17.47,8.735Z" transform="translate(-9.73 -4.865)" fill="#f2a431"/>
</svg>
