<svg xmlns="http://www.w3.org/2000/svg" width="22.505" height="22.5" viewBox="0 0 22.505 22.5">
  <path id="Icon_awesome-instagram" data-name="Icon awesome-instagram" d="M11.25,7.719a5.769,5.769,0,1,0,5.769,5.769A5.759,5.759,0,0,0,11.25,7.719Zm0,9.519A3.75,3.75,0,1,1,15,13.488,3.757,3.757,0,0,1,11.25,17.238ZM18.6,7.483a1.346,1.346,0,1,1-1.346-1.346A1.342,1.342,0,0,1,18.6,7.483ZM22.42,8.849A6.659,6.659,0,0,0,20.6,4.134a6.7,6.7,0,0,0-4.714-1.817c-1.858-.105-7.425-.105-9.283,0A6.693,6.693,0,0,0,1.891,4.129,6.68,6.68,0,0,0,.074,8.843c-.105,1.858-.105,7.425,0,9.283a6.659,6.659,0,0,0,1.817,4.714,6.711,6.711,0,0,0,4.714,1.817c1.858.105,7.425.105,9.283,0A6.659,6.659,0,0,0,20.6,22.841a6.7,6.7,0,0,0,1.817-4.714c.105-1.858.105-7.42,0-9.278ZM20.02,20.12a3.8,3.8,0,0,1-2.139,2.139c-1.481.587-5,.452-6.632.452s-5.156.131-6.632-.452A3.8,3.8,0,0,1,2.479,20.12c-.587-1.481-.452-5-.452-6.632S1.9,8.331,2.479,6.855A3.8,3.8,0,0,1,4.617,4.717c1.481-.587,5-.452,6.632-.452s5.156-.131,6.632.452A3.8,3.8,0,0,1,20.02,6.855c.587,1.481.452,5,.452,6.632S20.608,18.644,20.02,20.12Z" transform="translate(0.005 -2.238)" fill="#aaa"/>
</svg>
