<svg xmlns="http://www.w3.org/2000/svg" width="22.5" height="22.5" viewBox="0 0 22.5 22.5">
  <path id="Icon_metro-linkedin" data-name="Icon metro-linkedin" d="M21.291,1.928H6.35A3.79,3.79,0,0,0,2.571,5.707V20.649A3.79,3.79,0,0,0,6.35,24.428H21.291a3.79,3.79,0,0,0,3.779-3.779V5.707a3.79,3.79,0,0,0-3.779-3.779ZM11.008,20.209H8.2V10.365h2.812ZM9.6,8.959a1.406,1.406,0,1,1,1.406-1.406A1.406,1.406,0,0,1,9.6,8.959Zm11.25,11.25H18.039V14.584a1.406,1.406,0,1,0-2.812,0v5.625H12.414V10.365h2.812v1.746c.58-.8,1.467-1.746,2.461-1.746a3.354,3.354,0,0,1,3.164,3.516v6.328Z" transform="translate(-2.571 -1.928)" fill="#aaa"/>
</svg>
