<svg xmlns="http://www.w3.org/2000/svg" width="18.98" height="25.14" viewBox="0 0 18.98 25.14">
  <path id="Subtraction_15" data-name="Subtraction 15" d="M17.086,24.787H1.895A1.873,1.873,0,0,1,0,22.946V1.489A1.873,1.873,0,0,1,1.895-.353H17.086A1.873,1.873,0,0,1,18.98,1.489V22.946A1.873,1.873,0,0,1,17.086,24.787ZM5.03,16.485a.369.369,0,1,0,0,.737h11.3a.369.369,0,1,0,0-.737Zm-2,0a.369.369,0,1,0,.379.368A.374.374,0,0,0,3.031,16.485Zm2-2.209a.369.369,0,1,0,0,.737h11.3a.369.369,0,1,0,0-.737Zm-2,0a.369.369,0,1,0,.379.368A.374.374,0,0,0,3.031,14.276Zm2-2.21a.369.369,0,1,0,0,.737h11.3a.369.369,0,1,0,0-.737Zm-2,0,0,0a.368.368,0,1,0,.382.367.362.362,0,0,0-.111-.261A.382.382,0,0,0,3.031,12.066Zm2-2.21a.369.369,0,1,0,0,.737h11.3a.369.369,0,1,0,0-.737Zm-2,0a.369.369,0,1,0,.379.368A.374.374,0,0,0,3.031,9.857Zm2-2.209a.369.369,0,1,0,0,.737h11.3a.369.369,0,1,0,0-.737Zm-2,0a.369.369,0,1,0,.379.368A.374.374,0,0,0,3.031,7.647Z" transform="translate(0 0.353)" fill="#1f303f"/>
</svg>
