<svg id="master-card" xmlns="http://www.w3.org/2000/svg" xmlns:xlink="http://www.w3.org/1999/xlink" width="40.369" height="25.809" viewBox="0 0 40.369 25.809">
  <defs>
    <linearGradient id="linear-gradient" x1="0.5" x2="0.5" y2="1" gradientUnits="objectBoundingBox">
      <stop offset="0" stop-color="#1d4c80"/>
      <stop offset="1" stop-color="#173a63"/>
    </linearGradient>
  </defs>
  <path id="Path_39777" data-name="Path 39777" d="M2.479,0H37.89a2.479,2.479,0,0,1,2.479,2.479V23.331a2.479,2.479,0,0,1-2.479,2.479H2.479A2.479,2.479,0,0,1,0,23.331V2.479A2.479,2.479,0,0,1,2.479,0Z" fill="url(#linear-gradient)"/>
  <path id="Path_39768" data-name="Path 39768" d="M547.936,1262.987l.18-.71c.691-.208,2.1-.3,2.365.445a11.772,11.772,0,0,1-.369,2.772l-.672.01c-.151-.189-.028.161-.133-.3-.643.577-2.015.482-1.911-.681s1.107-1,2.195-1.173c-.019-.738-.946-.539-1.665-.369Zm5.062-.114c-.615,0-.71-.132-1.249.1.066.672.416.407.9.729.918.605-.066,2.479-2.252,1.675l.123-.681c.615.123.927.246,1.4-.019.114-.956-1.58-.331-1.107-1.864.255-.833,1.381-.719,2.308-.634l-.132.691Zm-9.423-1.448,1.448.047.151,2.271.785-1.816c.265-.653.085-.511,1.75-.492l-.747,4.059-.814-.009.445-2.914-1.2,2.933-.974-.028a21.143,21.143,0,0,0-.227-2.942l-.492,2.952-.851-.009Zm13.8,8.619.4-.473c-.795-.1-.937.123-1.3-.52l1.826-.019a5.317,5.317,0,0,0,.4-.587c-2.081-.142-2.668.388-3-.52h3.34l.369-.577-4.125-.019-.189-.483,4.447-.019c.255-.142.255-.3.322-.6l-4.21-.01c-.757.01-.8.18-.946-.511h5.3l.17-.587-1.552-.019-.076.4-.889-.038.558-3.3.842.114c0,.019.019.085.019.114s.009.047.009.057l.047.17a.962.962,0,0,1,.937-.473l-.284.766c-.161.208-.634-.028-.833.539l.927.038a5.975,5.975,0,0,1,.388-1.258l.01-.284-5.8.009-.019.208c.312,0,.3-.057.483.095l-.085.558c-.587.142-.568-.208-.624.558.085.142-.019.066.161.114l.369.009c.6-1.939,2.375-1.514,2.781-.908.218.322.435,1.381-.1,1.466l-1.807.019c.085.956,1.183.757,1.892.52-.028.4,0,.719-.369.851a2.839,2.839,0,0,1-1.23,0,1.347,1.347,0,0,1-1.192-1.438L554.4,1264c-.312-.142-.066,0-.227-.388-.132.795-.492,1.306.492,1.192-.057.473.009.634-.511.691-1.514.18-1.022-.833-.776-2.185.388-2.157.085-1.892,1.183-1.873l5.639.009-.114-.587-5.449-.019.1-.473,5.156-.028c-.132-.8-.161-.605-2.034-.605H555c.2-.691.095-.5,1.949-.5h2.507l-.265-.6-3.633-.009.246-.492,3.037-.019c-.388-.795-.369-.568-2.517-.605.274-.681.757-.511,1.6-.511-.237-.378-.407-.35-.549-.672a9.921,9.921,0,0,1-1.012-.747,9.2,9.2,0,1,0-3.5,16.632c2.706-.464,3.387-1.561,4.5-2.176Z" transform="translate(-537.169 -1250.329)" fill="#e41d2c" fill-rule="evenodd"/>
  <path id="Path_39769" data-name="Path 39769" d="M1874.063,1266.594c2.933-.6,2.45.851,2.214,2.025-.076.35-.076,1.041-.35,1.23a4.116,4.116,0,0,1-.492-.01c-.265-.1-.142.208-.18-.274-.795.454-2.053.558-1.9-.71.123-1.012,1.145-1.173,2.185-1.126-.038-.747-.719-.624-1.665-.388l.2-.747Zm2.9-.085.785.01a.176.176,0,0,1,.019.066l.123.35a.961.961,0,0,1,.823-.416l-.114.672-.388.151c-.776.255-.729,1.23-.937,2.507h-.88Zm4.172-.719h.8l-.691,4.068c-.9.009-.681.057-.965-.284-.587.87-2.346.066-1.807-1.731.4-1.344,1.741-1.7,2.4-.908l.265-1.154Zm-13.236-5.109c.142.322.322.293.549.672-.842,0-1.325-.18-1.6.511,2.148.038,2.129-.189,2.517.605l-3.037.019-.246.492,3.633.01.265.6h-2.507c-1.845,0-1.75-.18-1.949.5h2.857c1.873,0,1.9-.2,2.034.606l-5.156.028-.1.473,5.449.019.114.587-5.639-.009-.076.53,5.8-.009-.01.284c.435-.416.359-.634,1.173-.87a3.187,3.187,0,0,1,1.76.095l-.142.87c-1.135-.341-1.873-.255-2.138.918-.293,1.258.7,1.731,1.75,1.23-.095.918-.246,1.145-1.324,1a1.688,1.688,0,0,1-1.306-.9h-1.353l-.076.52,1.552.019-.17.586h-5.3c.142.691.189.521.946.511l4.21.01c-.076.284-.066.454-.322.6l-4.447.019.189.483,4.125.019-.369.577h-3.34c.331.9.918.379,3,.52a5.3,5.3,0,0,1-.4.587l-1.826.019c.35.634.5.416,1.3.52l-.4.473a9.259,9.259,0,0,0,10.246,1.381,9.2,9.2,0,0,0-.057-16.509,9.482,9.482,0,0,0-8.2.057,12.689,12.689,0,0,0-1.968,1.362Z" transform="translate(-1847.677 -1254.673)" fill="#f8b02b" fill-rule="evenodd"/>
  <path id="Path_39770" data-name="Path 39770" d="M634,2032.217l.852.009.492-2.952a21.143,21.143,0,0,1,.227,2.942l.974.028,1.2-2.933-.445,2.914.814.01.747-4.059c-1.665-.019-1.485-.161-1.75.492l-.785,1.816-.151-2.271-1.447-.047Zm26.358-.747c-.71-.729-.1-1.939.558-1.779S661.446,2031.45,660.358,2031.469Zm1.154-2.148c-.662-.795-2-.435-2.4.908-.539,1.788,1.22,2.6,1.807,1.731.284.341.066.284.965.284l.691-4.068h-.8l-.265,1.154Zm-6.5,2.157c-.133-.634.454-.88,1.012-.766A.7.7,0,0,1,655.012,2031.479Zm-.3-2.488-.2.747c.946-.227,1.637-.35,1.665.388-1.041-.047-2.062.114-2.185,1.126-.161,1.268,1.107,1.164,1.9.71.038.482-.085.17.18.274a4.142,4.142,0,0,0,.492.01c.284-.18.284-.88.35-1.23.246-1.183.719-2.621-2.214-2.025Zm-14.115,1.694a.785.785,0,0,1-.246.728c-.142.1-.568.227-.738.066-.53-.483.464-.8.974-.795Zm-1.5-.965c.719-.17,1.646-.369,1.665.369-1.088.17-2.091.019-2.195,1.173s1.258,1.258,1.911.681c.1.464-.019.114.132.3l.672-.01a11.837,11.837,0,0,0,.369-2.772c-.265-.757-1.665-.662-2.365-.445l-.18.71Zm7.843.473c.123-.483.331-.681.889-.606.2.284.2.2.237.606Zm-1,.047-.038.511a1.36,1.36,0,0,0,1.192,1.438,2.839,2.839,0,0,0,1.23,0c.369-.123.341-.454.369-.852-.71.237-1.807.435-1.892-.52l1.807-.019c.539-.085.322-1.135.1-1.466-.407-.606-2.185-1.031-2.781.908Zm5.506-1.258a5.981,5.981,0,0,0-.388,1.258v.52l.161.577a1.689,1.689,0,0,0,1.306.9c1.079.142,1.23-.085,1.325-1-1.06.5-2.044.028-1.75-1.23.274-1.182,1.012-1.258,2.138-.918l.142-.87a3.374,3.374,0,0,0-1.76-.095c-.814.227-.738.454-1.173.87Zm-7.162-.066c-.927-.076-2.053-.2-2.308.634-.473,1.533,1.211.908,1.107,1.864-.482.265-.785.142-1.4.019l-.123.681c2.185.8,3.16-1.06,2.252-1.675-.483-.322-.833-.047-.9-.728.539-.246.624-.1,1.249-.1l.132-.691Z" transform="translate(-628.323 -2017.06)" fill="#fefefe" fill-rule="evenodd"/>
  <path id="Path_39771" data-name="Path 39771" d="M1719.85,2043.1l.066-.227c.057-.766.038-.416.625-.558l.085-.558c-.18-.151-.17-.095-.483-.095l.019-.208.076-.53c-1.1-.019-.795-.284-1.183,1.873-.246,1.353-.738,2.365.776,2.186.511-.057.454-.218.511-.691C1719.368,2044.408,1719.727,2043.9,1719.85,2043.1Zm4.446,1.5.076-.52.095-.568.17-.568c.208-.568.681-.331.833-.539l.284-.766a.944.944,0,0,0-.937.473l-.047-.17c0-.009-.01-.038-.01-.057s-.019-.095-.019-.114l-.842-.114-.558,3.3.889.038.076-.4Zm7.256.378h.88c.208-1.277.161-2.252.937-2.507l.388-.151.113-.672a.962.962,0,0,0-.823.416l-.123-.35c-.009-.019-.009-.047-.019-.066l-.785-.01Z" transform="translate(-1702.84 -2029.81)" fill="#fefefe" fill-rule="evenodd"/>
  <path id="Path_39772" data-name="Path 39772" d="M3386.454,2203.256c1.1-.019,1.22-1.618.558-1.779S3385.745,2202.528,3386.454,2203.256Z" transform="translate(-3354.42 -2188.847)" fill="#f8b02b" fill-rule="evenodd"/>
  <path id="Path_39773" data-name="Path 39773" d="M1213.149,2307.979c-.511-.01-1.5.312-.974.795.17.151.6.028.738-.066a.8.8,0,0,0,.246-.729Zm9.262.643,1.353.01-.161-.577h-1.1Z" transform="translate(-1200.879 -2294.355)" fill="#e41d2c" fill-rule="evenodd"/>
  <path id="Path_39774" data-name="Path 39774" d="M2325.062,2257.287a.7.7,0,0,0,1.012-.766C2325.506,2256.416,2324.929,2256.662,2325.062,2257.287Zm-5.062-.719h1.1v-.52l-.927-.047Z" transform="translate(-2298.373 -2242.868)" fill="#f8b02b" fill-rule="evenodd"/>
  <path id="Path_39775" data-name="Path 39775" d="M2001,2190.969h1.126c-.028-.4-.038-.322-.237-.605C2001.331,2190.287,2001.123,2190.486,2001,2190.969Z" transform="translate(-1982.391 -2177.837)" fill="#e41d2c" fill-rule="evenodd"/>
  <path id="Path_39776" data-name="Path 39776" d="M1832,2248.237c.161.388-.085.246.227.388l.341.009.038-.511-.369-.01c-.189-.038-.085.028-.161-.114l-.066.227Z" transform="translate(-1814.989 -2234.944)" fill="#f8b02b" fill-rule="evenodd"/>
</svg>
