<svg xmlns="http://www.w3.org/2000/svg" width="21.27" height="24.72" viewBox="0 0 21.27 24.72">
  <g id="Group_46421" data-name="Group 46421" transform="translate(-2.127 -0.402)">
    <path id="Vector_2" data-name="Vector 2" d="M19.179,7.7c0-3.692-3.435-7.7-8.544-7.7S2.091,4.006,2.091,7.7a6.793,6.793,0,0,1-.285,2.12,6.185,6.185,0,0,1-.638,1.329l-.08.133a8.455,8.455,0,0,0-.7,1.366A6.185,6.185,0,0,0,0,14.913q0,.037,0,.075A4.664,4.664,0,0,0,.918,17.5a4.981,4.981,0,0,0,2.194,1.553c1.764.691,4.285.893,7.524.893s5.758-.2,7.522-.888a4.971,4.971,0,0,0,2.2-1.552,4.676,4.676,0,0,0,.915-2.518q0-.037,0-.075a6.185,6.185,0,0,0-.384-2.267,8.455,8.455,0,0,0-.7-1.366l-.08-.133a6.185,6.185,0,0,1-.638-1.329A6.793,6.793,0,0,1,19.179,7.7ZM10.635,1.725c4.193,0,6.819,3.27,6.819,5.973a8.5,8.5,0,0,0,.368,2.65,7.868,7.868,0,0,0,.8,1.684l.078.131a6.833,6.833,0,0,1,.575,1.1,4.438,4.438,0,0,1,.27,1.614,2.941,2.941,0,0,1-.558,1.576,3.265,3.265,0,0,1-1.458,1c-1.429.558-3.649.769-6.894.769s-5.466-.214-6.895-.774a3.276,3.276,0,0,1-1.458-1,2.929,2.929,0,0,1-.557-1.57,4.438,4.438,0,0,1,.27-1.614,6.833,6.833,0,0,1,.575-1.1l.078-.131a7.868,7.868,0,0,0,.8-1.684A8.5,8.5,0,0,0,3.816,7.7C3.816,4.995,6.442,1.725,10.635,1.725Z" transform="translate(2.127 0.402)" fill="#1f303f"/>
    <path id="Vector_1" data-name="Vector 1" d="M7.037.221A.862.862,0,0,0,5.819.286,2.779,2.779,0,0,1,1.5.285.862.862,0,1,0,.222,1.439a4.5,4.5,0,0,0,6.881,0A.862.862,0,0,0,7.037.221Z" transform="translate(9.153 22.084)" fill="#9ca4ba"/>
  </g>
</svg>
