<svg xmlns="http://www.w3.org/2000/svg" width="18" height="17.997" viewBox="0 0 18 17.997">
  <g id="b" transform="translate(0 -0.002)">
    <path id="Subtraction_13" data-name="Subtraction 13" d="M9,18a1.232,1.232,0,0,1-.951-.523c-.389-.5-.84-1.131-1.341-1.889-.113-.171-.217-.332-.317-.487l-.022-.033-.058-.091a25.119,25.119,0,0,1-2.573-.3A4.537,4.537,0,0,1,.385,11.454,18.892,18.892,0,0,1,0,7.541,18.889,18.889,0,0,1,.385,3.624,4.536,4.536,0,0,1,3.737.4,34.8,34.8,0,0,1,8.8,0h.41A34.773,34.773,0,0,1,14.26.4a4.537,4.537,0,0,1,3.355,3.224A19.506,19.506,0,0,1,18,7.541a19.5,19.5,0,0,1-.385,3.913,4.538,4.538,0,0,1-3.355,3.225,24.866,24.866,0,0,1-2.57.3l-.055.087c-.1.153-.215.333-.342.524-.514.776-.965,1.411-1.341,1.889A1.241,1.241,0,0,1,9,18Zm0-6.8a3.722,3.722,0,0,0-.548.043.584.584,0,0,0-.445.447,3.525,3.525,0,0,0,0,1.095.585.585,0,0,0,.445.447A3.482,3.482,0,0,0,9,13.272a3.794,3.794,0,0,0,.548-.043.593.593,0,0,0,.448-.447,3.742,3.742,0,0,0,0-1.095.592.592,0,0,0-.448-.447A3.425,3.425,0,0,0,9,11.2ZM9.21,4.366a1.72,1.72,0,0,1,1.413.516,1.2,1.2,0,0,1,.262.7c0,.186-.09.838-1.252,1.414a2.354,2.354,0,0,0-1.25,1.579,2.937,2.937,0,0,0-.083.968.668.668,0,0,0,.664.6l.038,0H9.02l.019,0A.669.669,0,0,0,9.628,9.4a1.24,1.24,0,0,1,.6-1.205,2.994,2.994,0,0,0,1.992-2.612c0-.882-.629-2.548-3.01-2.548A3,3,0,0,0,6.69,4.259a3.355,3.355,0,0,0-.576,1.217.664.664,0,0,0,.1.5.654.654,0,0,0,.42.287.68.68,0,0,0,.141.015.673.673,0,0,0,.652-.53,2.043,2.043,0,0,1,.34-.7A1.647,1.647,0,0,1,9.21,4.366Z" transform="translate(0 0.001)" fill="#41d387"/>
  </g>
</svg>
