<svg xmlns="http://www.w3.org/2000/svg" width="16.353" height="20" viewBox="0 0 16.353 20">
  <g id="Layer_17" transform="translate(-3.82 -1.1)">
    <path id="Path_39844" data-name="Path 39844" d="M13.32,12.04A5.47,5.47,0,1,0,7.85,6.57,5.476,5.476,0,0,0,13.32,12.04Z" transform="translate(-1.325)" fill="#666"/>
    <path id="Path_39845" data-name="Path 39845" d="M19.79,21.315A3.176,3.176,0,0,0,16.94,19.6H7.048a3.226,3.226,0,0,0-2.632,5.087,4.846,4.846,0,0,0,3.043,2.038,22.635,22.635,0,0,0,9.071,0,4.851,4.851,0,0,0,3.045-2.042l.032-.047a3.175,3.175,0,0,0,.183-3.321Z" transform="translate(0 -6.084)" fill="#666"/>
  </g>
</svg>
