<svg xmlns="http://www.w3.org/2000/svg" width="48.611" height="34" viewBox="0 0 48.611 34">
  <g id="rating" transform="translate(0 -76.946)">
    <g id="Group_41084" data-name="Group 41084" transform="translate(11.963 87.374)">
      <g id="Group_41083" data-name="Group 41083">
        <path id="Path_39831" data-name="Path 39831" d="M150.639,195.712a.949.949,0,0,0-.767-.646L142.493,194l-3.3-6.685a.949.949,0,0,0-.851-.529h0a.949.949,0,0,0-.851.53l-3.3,6.687-7.378,1.074a.949.949,0,0,0-.526,1.62l5.341,5.2-1.258,7.349a.949.949,0,0,0,1.378,1l6.6-3.471,6.6,3.468a.949.949,0,0,0,1.377-1l-1.262-7.348,5.338-5.206A.95.95,0,0,0,150.639,195.712Zm-7.261,5.168a.95.95,0,0,0-.273.841l1.021,5.944-5.339-2.805a.95.95,0,0,0-.884,0l-5.338,2.808,1.018-5.945a.949.949,0,0,0-.273-.84l-4.32-4.209,5.968-.869a.949.949,0,0,0,.715-.52l2.668-5.409,2.671,5.408a.949.949,0,0,0,.715.519l5.969.866Z" transform="translate(-126 -186.782)" fill="#1a4224"/>
      </g>
    </g>
    <g id="Group_41086" data-name="Group 41086" transform="translate(0 98.211)">
      <g id="Group_41085" data-name="Group 41085" transform="translate(0 0)">
        <path id="Path_39832" data-name="Path 39832" d="M13.246,305.712a.949.949,0,0,0-.767-.646l-3.442-.5L7.5,301.448a.949.949,0,0,0-.851-.529h0a.95.95,0,0,0-.851.53l-1.539,3.12-3.442.5a.949.949,0,0,0-.526,1.62l2.492,2.427-.587,3.429a.95.95,0,0,0,1.378,1l3.079-1.62,3.079,1.618a.949.949,0,0,0,1.377-1l-.589-3.428,2.49-2.429A.95.95,0,0,0,13.246,305.712ZM8.832,308.1a.95.95,0,0,0-.273.841l.348,2.024-1.818-.955a.95.95,0,0,0-.884,0l-1.818.956.347-2.024a.949.949,0,0,0-.273-.84L2.99,306.671l2.032-.3a.949.949,0,0,0,.715-.52l.908-1.842.909,1.842a.949.949,0,0,0,.715.519l2.033.295Z" transform="translate(0 -300.919)" fill="#1a4224"/>
      </g>
    </g>
    <g id="Group_41088" data-name="Group 41088" transform="translate(35.319 98.211)">
      <g id="Group_41087" data-name="Group 41087" transform="translate(0 0)">
        <path id="Path_39833" data-name="Path 39833" d="M385.245,305.715a.949.949,0,0,0-.766-.646l-3.442-.5-1.539-3.12a.95.95,0,0,0-.851-.53h0a.949.949,0,0,0-.851.529l-1.54,3.119-3.442.5a.949.949,0,0,0-.527,1.619l2.49,2.429-.589,3.428a.949.949,0,0,0,1.377,1l3.079-1.618,3.079,1.62a.95.95,0,0,0,1.378-1l-.587-3.429L385,306.688A.95.95,0,0,0,385.245,305.715Zm-4.415,2.389a.95.95,0,0,0-.273.84l.347,2.024-1.818-.956a.95.95,0,0,0-.883,0l-1.818.955.348-2.024a.95.95,0,0,0-.273-.841l-1.47-1.434,2.033-.295a.949.949,0,0,0,.715-.519l.909-1.842.908,1.842a.949.949,0,0,0,.715.52l2.032.3Z" transform="translate(-371.999 -300.918)" fill="#1a4224"/>
      </g>
    </g>
    <g id="Group_41090" data-name="Group 41090" transform="translate(32.376 86.058)">
      <g id="Group_41089" data-name="Group 41089" transform="translate(0 0)">
        <path id="Path_39834" data-name="Path 39834" d="M345.754,173.2a.95.95,0,0,0-1.343,0l-3.133,3.133a.949.949,0,0,0,1.343,1.343l3.133-3.133A.95.95,0,0,0,345.754,173.2Z" transform="translate(-341 -172.918)" fill="#1a4224"/>
      </g>
    </g>
    <g id="Group_41092" data-name="Group 41092" transform="translate(37.751 83.815)">
      <g id="Group_41091" data-name="Group 41091" transform="translate(0 0)">
        <path id="Path_39835" data-name="Path 39835" d="M399.243,149.568a.951.951,0,1,0,.277.671A.958.958,0,0,0,399.243,149.568Z" transform="translate(-397.621 -149.29)" fill="#1a4224"/>
      </g>
    </g>
    <g id="Group_41094" data-name="Group 41094" transform="translate(8.96 83.815)">
      <g id="Group_41093" data-name="Group 41093" transform="translate(0 0)">
        <path id="Path_39836" data-name="Path 39836" d="M95.993,149.568a.949.949,0,1,0,.278.671A.958.958,0,0,0,95.993,149.568Z" transform="translate(-94.371 -149.29)" fill="#1a4224"/>
      </g>
    </g>
    <g id="Group_41096" data-name="Group 41096" transform="translate(11.203 86.058)">
      <g id="Group_41095" data-name="Group 41095" transform="translate(0 0)">
        <path id="Path_39837" data-name="Path 39837" d="M122.627,176.2l-3.005-3.005a.949.949,0,0,0-1.343,1.343l3.005,3.005a.949.949,0,1,0,1.343-1.343Z" transform="translate(-118.001 -172.919)" fill="#1a4224"/>
      </g>
    </g>
    <g id="Group_41098" data-name="Group 41098" transform="translate(23.356 76.946)">
      <g id="Group_41097" data-name="Group 41097" transform="translate(0 0)">
        <path id="Path_39838" data-name="Path 39838" d="M246.949,76.946A.95.95,0,0,0,246,77.9v6.444a.949.949,0,0,0,1.9,0V77.9A.95.95,0,0,0,246.949,76.946Z" transform="translate(-246 -76.946)" fill="#1a4224"/>
      </g>
    </g>
  </g>
</svg>
