<svg id="receive-mail" xmlns="http://www.w3.org/2000/svg" width="34" height="34" viewBox="0 0 34 34">
  <g id="Group_41082" data-name="Group 41082">
    <path id="Path_39830" data-name="Path 39830" d="M31.012,12.02H21.98l1.793-2.391a1,1,0,0,0-.8-1.594H19.988V1a1,1,0,0,0-1-1H15.008a1,1,0,0,0-1,1V8.035H11.023a1,1,0,0,0-.8,1.594L12.02,12.02H2.988A2.992,2.992,0,0,0,0,15.008v16A2.992,2.992,0,0,0,2.988,34H31.012A2.992,2.992,0,0,0,34,31.012v-16A2.992,2.992,0,0,0,31.012,12.02Zm-16-1.992a1,1,0,0,0,1-1V1.992H18V9.031a1,1,0,0,0,1,1h1.992L17,15.34l-3.984-5.312Zm-1.494,3.984L16.2,17.6a1,1,0,0,0,1.594,0l2.689-3.593h9.986L17.656,25.173a.843.843,0,0,1-1.314,0L3.527,14.012ZM1.992,30.7V15.316L10.8,22.986Zm1.528,1.31,8.794-7.7,2.717,2.367a2.8,2.8,0,0,0,3.934,0l2.719-2.368,8.794,7.7ZM32.008,30.7,23.2,22.986l8.806-7.669Z" fill="#1a4224"/>
  </g>
</svg>
