<svg id="paper" xmlns="http://www.w3.org/2000/svg" width="24" height="24" viewBox="0 0 24 24">
  <path id="Path_40153" data-name="Path 40153" d="M14.25,0H2.75A2.748,2.748,0,0,0,0,2.75v15.5A2.748,2.748,0,0,0,2.75,21h8.14A7.138,7.138,0,0,1,9.5,16.75,7.255,7.255,0,0,1,16.75,9.5a2.09,2.09,0,0,1,.25.01V2.75A2.748,2.748,0,0,0,14.25,0ZM4,4H8A1,1,0,0,1,8,6H4A1,1,0,0,1,4,4ZM9,14H4a1,1,0,0,1,0-2H9a1,1,0,0,1,0,2Zm4-4H4A1,1,0,0,1,4,8h9a1,1,0,0,1,0,2Z" fill="#03bdde"/>
  <path id="Path_40154" data-name="Path 40154" d="M16.75,22A5.25,5.25,0,1,1,22,16.75,5.256,5.256,0,0,1,16.75,22Zm0-8.5A3.25,3.25,0,1,0,20,16.75,3.254,3.254,0,0,0,16.75,13.5Z" fill="#03bdde"/>
  <path id="Path_40155" data-name="Path 40155" d="M23,24a1,1,0,0,1-.707-.293l-3.25-3.25a1,1,0,0,1,1.414-1.414l3.25,3.25A1,1,0,0,1,23,24Z" fill="#03bdde"/>
</svg>
