<svg width="32" height="32" viewBox="0 0 32 32" fill="none" xmlns="http://www.w3.org/2000/svg">
<path fill-rule="evenodd" clip-rule="evenodd" d="M9 6.2857C8.76331 6.2857 8.57143 6.47757 8.57143 6.71427V26.4286C8.57143 26.6652 8.76331 26.8571 9 26.8571H23.5714C23.8081 26.8571 24 26.6652 24 26.4286V16.1428C24 14.486 22.6569 13.1428 21 13.1428H19.2857C18.1023 13.1428 17.1429 12.1835 17.1429 11V9.2857C17.1429 7.62884 15.7997 6.2857 14.1429 6.2857H9ZM9 4.57141C7.81654 4.57141 6.85715 5.5308 6.85715 6.71427V26.4286C6.85715 27.612 7.81654 28.5714 9 28.5714H23.5714C24.7549 28.5714 25.7143 27.612 25.7143 26.4286V15.7143C25.7143 9.56024 20.7255 4.57141 14.5714 4.57141H9ZM18.2938 7.04896C18.6532 7.71449 18.8571 8.47627 18.8571 9.2857V11C18.8571 11.2367 19.049 11.4286 19.2857 11.4286H21C21.8094 11.4286 22.5712 11.6326 23.2367 11.9919C22.2843 9.77769 20.508 8.00139 18.2938 7.04896ZM11.1429 20C11.1429 19.5266 11.5266 19.1428 12 19.1428H20.5714C21.0448 19.1428 21.4286 19.5266 21.4286 20C21.4286 20.4734 21.0448 20.8571 20.5714 20.8571H12C11.5266 20.8571 11.1429 20.4734 11.1429 20ZM11.1429 23.4286C11.1429 22.9552 11.5266 22.5714 12 22.5714H16.2857C16.7591 22.5714 17.1429 22.9552 17.1429 23.4286C17.1429 23.9019 16.7591 24.2857 16.2857 24.2857H12C11.5266 24.2857 11.1429 23.9019 11.1429 23.4286Z" fill="white"/>
</svg>
