<svg xmlns="http://www.w3.org/2000/svg" width="11.744" height="15.418" viewBox="0 0 11.744 15.418">
  <g id="document" transform="translate(-61)">
    <path id="Path_40420" data-name="Path 40420" d="M69.1,4.517a1.055,1.055,0,0,1-1.054-1.054V0h-5.39A1.658,1.658,0,0,0,61,1.656V13.762a1.658,1.658,0,0,0,1.656,1.656h8.432a1.658,1.658,0,0,0,1.656-1.656V4.517Zm-5.631,6.324h2.19a.452.452,0,0,1,0,.9h-2.19a.452.452,0,0,1,0-.9Zm-.452-1.957a.452.452,0,0,1,.452-.452h6.625a.452.452,0,1,1,0,.9H63.469A.452.452,0,0,1,63.018,8.883Zm7.077-2.861a.452.452,0,1,1,0,.9H63.469a.452.452,0,1,1,0-.9Z" fill="#fff"/>
    <path id="Path_40421" data-name="Path 40421" d="M325,9.5a.151.151,0,0,0,.151.151h3.442a1.652,1.652,0,0,0-.317-.414l-2.9-2.747A1.661,1.661,0,0,0,325,6.221V9.5Z" transform="translate(-256.05 -6.034)" fill="#fff"/>
  </g>
</svg>
