<svg xmlns="http://www.w3.org/2000/svg" width="25" height="25" viewBox="0 0 25 25">
  <g id="Group_42420" data-name="Group 42420" transform="translate(-0.208 -0.206)">
    <g id="Button_BG" data-name="Button BG" transform="translate(0.208 0.206)" fill="#fff" stroke="#a6b1c2" stroke-linejoin="round" stroke-width="0.5">
      <rect width="25" height="25" rx="5" stroke="none"/>
      <rect x="0.25" y="0.25" width="24.5" height="24.5" rx="4.75" fill="none"/>
    </g>
    <path id="share" d="M13.063,12.435a3.019,3.019,0,0,0-2.238.991L5.844,10.34a3.014,3.014,0,0,0,0-2.194l4.981-3.085a3.025,3.025,0,1,0-.581-.937L5.263,7.209a3.026,3.026,0,1,0,0,4.069l4.981,3.085a3.025,3.025,0,1,0,2.819-1.929ZM11.141,3.026a1.922,1.922,0,1,1,1.922,1.922,1.925,1.925,0,0,1-1.922-1.922ZM3.025,11.166A1.922,1.922,0,1,1,4.948,9.243,1.925,1.925,0,0,1,3.025,11.166Zm8.115,4.295a1.922,1.922,0,1,1,1.922,1.922A1.925,1.925,0,0,1,11.141,15.46Zm0,0" transform="translate(4.722 3.249)" fill="#585858"/>
  </g>
</svg>
