<svg xmlns="http://www.w3.org/2000/svg" width="17.995" height="23.333" viewBox="0 0 17.995 23.333">
  <g id="share" transform="translate(-8.226 -3.545)">
    <path id="Path_39985" data-name="Path 39985" d="M23.654,10.557H21.319a.856.856,0,0,0,0,1.711h2.336a.857.857,0,0,1,.856.856V24.312a.857.857,0,0,1-.856.856H10.793a.857.857,0,0,1-.856-.856V13.124a.857.857,0,0,1,.856-.856h2.336a.856.856,0,1,0,0-1.711H10.793a2.57,2.57,0,0,0-2.567,2.567V24.312a2.57,2.57,0,0,0,2.567,2.567H23.654a2.57,2.57,0,0,0,2.567-2.567V13.124a2.57,2.57,0,0,0-2.567-2.567ZM14.033,8.83,16.4,6.467V17.731a.856.856,0,1,0,1.711,0V6.467L20.47,8.83a.856.856,0,0,0,1.21-1.21L17.857,3.8a.856.856,0,0,0-1.21,0L12.823,7.62a.855.855,0,0,0,1.21,1.21Z" fill="#ffb662"/>
  </g>
</svg>
