<svg xmlns="http://www.w3.org/2000/svg" width="22.5" height="22.5" viewBox="0 0 22.5 22.5">
  <path id="Icon_awesome-snapchat-square" data-name="Icon awesome-snapchat-square" d="M20.089,2.25H2.411A2.411,2.411,0,0,0,0,4.661V22.339A2.411,2.411,0,0,0,2.411,24.75H20.089A2.411,2.411,0,0,0,22.5,22.339V4.661A2.411,2.411,0,0,0,20.089,2.25Zm-.326,15.815c-.176.407-.909.7-2.25.914a6.171,6.171,0,0,0-.216.8.387.387,0,0,1-.407.3h-.01c-.311,0-.643-.146-1.3-.146a2.64,2.64,0,0,0-1.878.688,3.747,3.747,0,0,1-2.471.914A3.831,3.831,0,0,1,8.8,20.617a2.648,2.648,0,0,0-1.878-.688,12.8,12.8,0,0,0-1.3.156.4.4,0,0,1-.417-.3,6.305,6.305,0,0,0-.216-.8C4.3,18.874,2.742,18.6,2.707,17.9a.355.355,0,0,1,.3-.372,5.03,5.03,0,0,0,3.415-2.868c0-.005.005-.01.01-.015a.751.751,0,0,0,.08-.628c-.171-.4-.9-.537-1.205-.663-.794-.311-.9-.673-.854-.919a.859.859,0,0,1,1.1-.517,1.892,1.892,0,0,0,.789.211.7.7,0,0,0,.331-.07A9.932,9.932,0,0,1,6.86,8.191a4.561,4.561,0,0,1,4.224-2.727l.336-.005a4.52,4.52,0,0,1,4.234,2.727,9.926,9.926,0,0,1,.191,3.872.631.631,0,0,0,.286.07,1.982,1.982,0,0,0,.738-.211.918.918,0,0,1,.683,0,.7.7,0,0,1,.522.6c.005.326-.286.608-.864.834-.07.03-.156.055-.246.085-.326.105-.824.261-.954.578a.77.77,0,0,0,.08.628c.005.005.005.01.01.015a5.03,5.03,0,0,0,3.415,2.868.386.386,0,0,1,.246.542Z" transform="translate(0 -2.25)" fill="#aaa"/>
</svg>
