<svg id="refresh-page-option" xmlns="http://www.w3.org/2000/svg" width="14.423" height="14.423" viewBox="0 0 14.423 14.423">
  <g id="Group_39023" data-name="Group 39023">
    <path id="Path_39718" data-name="Path 39718" d="M19.213.782a.59.59,0,0,0-.845,0L17.147,1.994a7.273,7.273,0,0,0-2.3-1.47A7.086,7.086,0,0,0,12.18,0,6.934,6.934,0,0,0,7.672,1.566a7.324,7.324,0,0,0-2.535,4.08v.066a.3.3,0,0,0,.3.3H7.306A.282.282,0,0,0,7.588,5.8a11.352,11.352,0,0,1,.5-1.1,4.789,4.789,0,0,1,4.094-2.291,4.666,4.666,0,0,1,3.277,1.286l-1.3,1.3a.6.6,0,0,0,.423,1.024H18.79a.609.609,0,0,0,.6-.6V1.2A.577.577,0,0,0,19.213.782Z" transform="translate(-4.968 -0.003)" fill="#fff"/>
    <path id="Path_39719" data-name="Path 39719" d="M13.888,255.8h-1.8a.281.281,0,0,0-.282.216,11.357,11.357,0,0,1-.5,1.1,4.789,4.789,0,0,1-4.094,2.291,4.686,4.686,0,0,1-1.756-.338,4.848,4.848,0,0,1-1.512-.958l1.286-1.286a.6.6,0,0,0-.423-1.024H.6a.577.577,0,0,0-.423.179A.577.577,0,0,0,0,256.4v4.207a.577.577,0,0,0,.178.422.579.579,0,0,0,.423.179.578.578,0,0,0,.423-.179l1.211-1.211a7.17,7.17,0,0,0,2.287,1.474,7.032,7.032,0,0,0,2.653.516,6.884,6.884,0,0,0,4.488-1.563,7.3,7.3,0,0,0,2.517-4.08.161.161,0,0,0,.009-.066.3.3,0,0,0-.3-.3Z" transform="translate(0 -247.388)" fill="#fff"/>
  </g>
</svg>
