<svg xmlns="http://www.w3.org/2000/svg" width="22.5" height="22.5" viewBox="0 0 22.5 22.5">
  <path id="Icon_awesome-twitter-square" data-name="Icon awesome-twitter-square" d="M20.089,2.25H2.411A2.411,2.411,0,0,0,0,4.661V22.339A2.411,2.411,0,0,0,2.411,24.75H20.089A2.411,2.411,0,0,0,22.5,22.339V4.661A2.411,2.411,0,0,0,20.089,2.25Zm-2.456,7.975c.01.141.01.286.01.427a9.308,9.308,0,0,1-9.372,9.372,9.328,9.328,0,0,1-5.057-1.477,6.94,6.94,0,0,0,.794.04A6.6,6.6,0,0,0,8.1,17.181,3.3,3.3,0,0,1,5.017,14.9a3.55,3.55,0,0,0,1.487-.06A3.294,3.294,0,0,1,3.867,11.6v-.04a3.292,3.292,0,0,0,1.487.417A3.287,3.287,0,0,1,3.887,9.236a3.253,3.253,0,0,1,.447-1.662,9.353,9.353,0,0,0,6.79,3.445,3.3,3.3,0,0,1,5.62-3.008,6.455,6.455,0,0,0,2.089-.794A3.285,3.285,0,0,1,17.387,9.03a6.555,6.555,0,0,0,1.9-.512A6.933,6.933,0,0,1,17.633,10.225Z" transform="translate(0 -2.25)" fill="#aaa"/>
</svg>
