<svg id="visa" xmlns="http://www.w3.org/2000/svg" width="40.911" height="25.809" viewBox="0 0 40.911 25.809">
  <path id="Path_39783" data-name="Path 39783" d="M43.745,40.3c0-1.965-1.021-2.94-3-2.94H5.836a2.775,2.775,0,0,0-2.2.8,2.859,2.859,0,0,0-.8,2.135v19.93a2.882,2.882,0,0,0,.8,2.135,2.981,2.981,0,0,0,2.2.8H40.743c1.981,0,3-.99,3-2.94Z" transform="translate(-2.834 -37.365)" fill="#fff" fill-rule="evenodd"/>
  <path id="Path_39779" data-name="Path 39779" d="M43.745,40.3c0-1.965-1.021-2.94-3-2.94H5.836a2.775,2.775,0,0,0-2.2.8,2.859,2.859,0,0,0-.8,2.135v19.93a2.882,2.882,0,0,0,.8,2.135,2.981,2.981,0,0,0,2.2.8H40.743c1.981,0,3-.99,3-2.94Zm-3-2.476A2.2,2.2,0,0,1,43.219,40.3v19.93a2.19,2.19,0,0,1-2.476,2.475H5.836A2.388,2.388,0,0,1,3.3,60.234V40.3a2.21,2.21,0,0,1,2.537-2.476Z" transform="translate(-2.834 -37.365)" fill="#315881" fill-rule="evenodd"/>
  <path id="Path_39780" data-name="Path 39780" d="M12.086,44.724a1.839,1.839,0,0,0-1.315.34,2.224,2.224,0,0,0-.294,1.331v4.317H48.045V46.4a1.471,1.471,0,0,0-1.671-1.671Z" transform="translate(-8.806 -43.115)" fill="#315881" fill-rule="evenodd"/>
  <path id="Path_39781" data-name="Path 39781" d="M10.477,124.682c0,1.145.541,1.733,1.609,1.733H46.374a1.509,1.509,0,0,0,1.671-1.733v-4.317H10.477Z" transform="translate(-8.806 -102.215)" fill="#dfa43b" fill-rule="evenodd"/>
  <path id="Path_39782" data-name="Path 39782" d="M41.217,77.045a.8.8,0,0,1-.108.464L38.4,82.229l-.17-5.756H33.9l1.454.7a1.188,1.188,0,0,1,.634,1.037l.4,6.112h2.12l5.075-7.845h-2.6A.77.77,0,0,1,41.217,77.045Zm17.516-.34.17-.232H56.256c.093.093.124.139.124.17a2.973,2.973,0,0,1-.124.294L52.4,83.961c-.093.124-.186.232-.294.356h2.182l-.108-.232a3.327,3.327,0,0,1,.34-1.1l.464-.867h2.244c.093.727.155,1.331.186,1.78l-.186.418h2.708l-.4-.588-.8-7.025Zm-1.609,4.317H55.514l1.377-2.646ZM50.439,76.07a3.568,3.568,0,0,0-2.182.7,1.758,1.758,0,0,0-1.037,1.548,2.484,2.484,0,0,0,.743,1.841l1.5,1.037c.542.387.8.727.8,1.037a.942.942,0,0,1-.4.758,1.45,1.45,0,0,1-.928.294,7.231,7.231,0,0,1-2.754-1.1v1.439a5.7,5.7,0,0,0,2.924.913,3.386,3.386,0,0,0,2.306-.8,2.03,2.03,0,0,0,.232-3.389L50.206,79.3c-.479-.387-.742-.727-.742-.99,0-.6.356-.913,1.083-.913a4.865,4.865,0,0,1,2.2.867l.294-1.5a5.156,5.156,0,0,0-2.6-.7Zm-5.756,8.247c-.031-.325-.093-.619-.124-.928l1.965-6.344.464-.572H44.157c.031.139.062.325.093.464a2.412,2.412,0,0,1-.031.464l-1.965,6.282-.4.635h2.832Z" transform="translate(-27.105 -67.606)" fill="#315881" fill-rule="evenodd"/>
</svg>
