<svg xmlns="http://www.w3.org/2000/svg" width="22.5" height="22.5" viewBox="0 0 22.5 22.5">
  <path id="Icon_awesome-whatsapp-square" data-name="Icon awesome-whatsapp-square" d="M11.25,6.81A6.619,6.619,0,0,0,5.64,16.95L5.8,17.2l-.668,2.441,2.506-.658.241.146a6.6,6.6,0,0,0,3.37.924h.005a6.693,6.693,0,0,0,6.695-6.619,6.65,6.65,0,0,0-2.014-4.681A6.569,6.569,0,0,0,11.25,6.81Zm3.892,9.462a2.03,2.03,0,0,1-1.341.944,3.882,3.882,0,0,1-2.386-.5,8.94,8.94,0,0,1-3.4-3A3.856,3.856,0,0,1,7.2,11.657a2.229,2.229,0,0,1,.7-1.662.725.725,0,0,1,.532-.251c.131,0,.266,0,.382.005s.286-.045.447.342.563,1.376.613,1.477a.351.351,0,0,1,.015.347c-.382.763-.789.733-.583,1.085a5.422,5.422,0,0,0,2.707,2.366c.2.1.316.085.432-.05s.5-.583.628-.778.266-.166.447-.1,1.16.547,1.361.648.331.151.382.231a1.767,1.767,0,0,1-.121.959ZM20.089,2.25H2.411A2.411,2.411,0,0,0,0,4.661V22.339A2.411,2.411,0,0,0,2.411,24.75H20.089A2.411,2.411,0,0,0,22.5,22.339V4.661A2.411,2.411,0,0,0,20.089,2.25ZM11.245,21.4a7.957,7.957,0,0,1-3.807-.969l-4.224,1.11,1.13-4.128a7.979,7.979,0,1,1,14.941-3.973A8.038,8.038,0,0,1,11.245,21.4Z" transform="translate(0 -2.25)" fill="#aaa"/>
</svg>
