<svg xmlns="http://www.w3.org/2000/svg" width="22.5" height="15.82" viewBox="0 0 22.5 15.82">
  <path id="Icon_awesome-youtube" data-name="Icon awesome-youtube" d="M23.08,6.975a2.827,2.827,0,0,0-1.989-2C19.336,4.5,12.3,4.5,12.3,4.5s-7.036,0-8.791.473a2.827,2.827,0,0,0-1.989,2,29.658,29.658,0,0,0-.47,5.451,29.658,29.658,0,0,0,.47,5.451,2.785,2.785,0,0,0,1.989,1.97c1.755.473,8.791.473,8.791.473s7.036,0,8.791-.473a2.785,2.785,0,0,0,1.989-1.97,29.658,29.658,0,0,0,.47-5.451,29.658,29.658,0,0,0-.47-5.451ZM10,15.772V9.081l5.881,3.346L10,15.772Z" transform="translate(-1.05 -4.5)" fill="#aaa"/>
</svg>
